<?xml version="1.0" standalone="no"?>
<!DOCTYPE svg PUBLIC "-//W3C//DTD SVG 20010904//EN"
 "http://www.w3.org/TR/2001/REC-SVG-20010904/DTD/svg10.dtd">
<svg version="1.0" xmlns="http://www.w3.org/2000/svg"
 width="822.000000pt" height="812.000000pt" viewBox="0 0 822.000000 812.000000"
 preserveAspectRatio="xMidYMid meet">

<g transform="translate(0.000000,812.000000) scale(0.100000,-0.100000)"
fill="#000000" stroke="none">
<path d="M3875 8069 c-1634 -107 -3040 -1195 -3555 -2749 -217 -655 -265
-1344 -139 -2015 268 -1434 1302 -2616 2689 -3075 655 -217 1344 -265 2015
-139 1434 268 2616 1302 3075 2689 217 655 265 1344 139 2015 -268 1434 -1302
2616 -2689 3075 -504 167 -1014 233 -1535 199z m178 -2885 c120 -41 139 -170
48 -324 -124 -208 -292 -371 -845 -817 l-110 -88 -44 -100 c-45 -104 -146
-394 -139 -401 2 -2 45 45 96 106 199 238 442 471 582 555 52 32 76 40 125 43
55 4 63 2 78 -19 37 -54 14 -138 -85 -314 -232 -409 -216 -716 29 -567 112 67
307 252 460 436 24 29 45 30 50 3 8 -41 -202 -288 -349 -412 -187 -157 -359
-195 -464 -104 -43 38 -59 85 -58 179 1 114 25 188 124 386 50 100 89 190 87
200 -14 68 -214 -72 -369 -256 -25 -30 -114 -145 -197 -255 -179 -237 -191
-251 -248 -275 -57 -25 -122 -42 -133 -36 -8 6 41 152 183 540 42 115 76 211
76 213 0 2 -34 -37 -76 -87 -94 -114 -193 -224 -205 -228 -16 -6 -10 63 8 88
9 14 73 94 141 178 l124 154 -18 34 c-18 34 -18 34 4 56 19 20 26 21 52 11 28
-11 31 -9 44 15 289 570 368 696 554 893 143 151 242 208 363 209 36 0 86 -7
112 -16z m-1639 -29 c143 -30 196 -77 196 -175 0 -77 -54 -181 -130 -254 -58
-56 -100 -72 -100 -39 0 9 29 46 64 83 79 81 97 129 71 183 -36 76 -185 116
-356 97 -262 -30 -514 -115 -695 -235 -87 -58 -144 -121 -144 -159 2 -75 68
-114 430 -252 325 -124 488 -212 588 -318 70 -74 92 -123 92 -211 0 -94 -35
-168 -126 -265 -222 -235 -614 -436 -1028 -526 -157 -35 -398 -39 -511 -10
-151 40 -239 107 -271 210 -15 49 -16 65 -6 133 33 213 198 393 485 528 151
72 384 121 451 95 47 -17 16 -36 -72 -44 -209 -19 -409 -119 -558 -279 -120
-128 -162 -262 -112 -357 31 -57 112 -114 193 -135 178 -45 579 8 870 117 363
135 575 312 575 481 0 66 -19 106 -76 156 -78 68 -189 122 -434 208 -283 99
-324 115 -420 161 -119 58 -202 134 -220 202 -18 65 0 151 43 213 130 185 456
328 917 400 62 10 221 5 284 -8z m3064 -995 c27 -12 42 -25 42 -37 0 -10 -45
-94 -101 -188 -128 -217 -163 -292 -194 -411 -39 -151 -31 -278 20 -298 59
-22 137 14 273 128 81 68 237 225 313 315 45 54 69 61 69 21 0 -45 -208 -285
-352 -406 -170 -142 -330 -188 -435 -124 -43 26 -63 59 -80 130 -11 52 -11 74
2 162 8 57 24 132 35 167 10 35 17 61 15 59 -3 -3 -45 -65 -93 -139 -191 -289
-309 -383 -457 -365 -118 14 -212 81 -236 168 -25 94 4 243 76 388 41 81 164
267 197 298 43 39 117 52 191 31 58 -16 49 -39 -52 -143 -135 -139 -207 -246
-256 -381 -68 -189 -48 -295 56 -295 178 0 454 301 757 825 l74 127 46 -7 c26
-4 66 -15 90 -25z m1416 0 c33 -12 47 -62 35 -126 -5 -27 -49 -129 -98 -229
-113 -227 -143 -318 -145 -442 -1 -84 1 -93 23 -117 49 -52 127 -26 266 87 82
66 253 238 337 337 36 43 49 52 58 43 7 -6 10 -22 6 -35 -17 -64 -256 -329
-386 -426 -160 -121 -331 -154 -424 -81 -87 68 -89 222 -6 429 12 30 48 110
81 176 66 136 79 181 57 189 -22 9 -57 -8 -123 -58 -131 -98 -231 -211 -445
-497 -67 -91 -135 -178 -149 -193 -30 -34 -98 -70 -160 -87 -54 -14 -68 -4
-48 36 8 16 58 155 111 309 54 154 115 330 136 390 21 61 44 132 50 158 19 89
56 118 135 109 39 -4 75 -26 75 -44 0 -5 -27 -75 -61 -155 -60 -143 -179 -460
-179 -476 0 -5 25 22 56 60 99 120 299 336 386 414 218 198 330 260 412 229z"/>
<path d="M3944 5096 c-50 -22 -208 -160 -289 -253 -122 -139 -248 -340 -381
-605 -74 -147 -75 -147 75 -30 354 276 653 617 702 804 24 87 -20 122 -107 84z"/>
</g>
</svg>
